<svg width="24" height="24" viewBox="0 0 24 24" fill="none" xmlns="http://www.w3.org/2000/svg">
<path fill-rule="evenodd" clip-rule="evenodd" d="M9 4C6.79086 4 5 5.79086 5 8C5 10.2091 6.79086 12 9 12C11.2091 12 13 10.2091 13 8C13 5.79086 11.2091 4 9 4ZM7 13C4.79086 13 3 14.7909 3 17V18C3 19.1046 3.89543 20 5 20H13C14.1046 20 15 19.1046 15 18V17C15 14.7909 13.2091 13 11 13H7ZM15 12C15 11.4477 15.4477 11 16 11H17V10C17 9.44772 17.4477 9 18 9C18.5523 9 19 9.44772 19 10V11H20C20.5523 11 21 11.4477 21 12C21 12.5523 20.5523 13 20 13H19V14C19 14.5523 18.5523 15 18 15C17.4477 15 17 14.5523 17 14V13H16C15.4477 13 15 12.5523 15 12Z" fill="#383838"/>
</svg>
