<svg width="24" height="24" viewBox="0 0 24 24" fill="none" xmlns="http://www.w3.org/2000/svg">
<path fill-rule="evenodd" clip-rule="evenodd" d="M12 20C10.107 20 8.36763 19.3425 6.99768 18.2435C6.99845 18.2441 6.99923 18.2448 7 18.2454V17.5625C7 15.7676 8.49238 14.3125 10.3333 14.3125H13.6667C15.5076 14.3125 17 15.7676 17 17.5625V18.2454C15.6304 19.3433 13.8919 20 12 20ZM2 12C2 6.47715 6.47715 2 12 2C17.5228 2 22 6.47715 22 12C22 17.5003 17.5593 21.9635 12.0675 21.9998C12.045 21.9999 12.0225 22 12 22C11.9763 22 11.9527 21.9999 11.9291 21.9998C6.43889 21.9616 2 17.4992 2 12ZM12 7C10.1591 7 8.66667 8.45507 8.66667 10.25C8.66667 12.0449 10.1591 13.5 12 13.5C13.8409 13.5 15.3333 12.0449 15.3333 10.25C15.3333 8.45507 13.8409 7 12 7Z" fill="#383838"/>
</svg>
